<svg width="260" height="260" fill="none" xmlns="http://www.w3.org/2000/svg"><path fill-rule="evenodd" clip-rule="evenodd" d="M260 130c0 20.754-4.864 40.373-13.513 57.778H138.125c20.009-27.241 40.625-60.229 40.625-93.89 0-43.315-33-79.78-77.872-90.614A130.41 130.41 0 0 1 130 0c71.797 0 130 58.203 130 130ZM146.25 93.889c0-35.899-32.739-65-73.125-65C19.088 28.889 0 90.329 0 130c0 71.797 58.203 130 130 130 38.501 0 73.094-16.738 96.898-43.333H73.125c2.859-3.24 5.852-6.579 8.927-10.009 28.575-31.872 64.198-71.604 64.198-112.77Z" fill="#7859CF"/></svg>