<svg width="260" height="260" viewBox="0 0 260 260" fill="none" xmlns="http://www.w3.org/2000/svg">
<path fill-rule="evenodd" clip-rule="evenodd" d="M260 130C260 150.754 255.136 170.373 246.487 187.778H138.125C158.134 160.537 178.75 127.549 178.75 93.8889C178.75 50.5726 145.75 14.1076 100.878 3.2745C110.24 1.13181 119.988 0 130 0C201.797 0 260 58.203 260 130ZM146.25 93.8889C146.25 57.9904 113.511 28.8889 73.1249 28.8889C19.0885 28.8889 0 90.3291 0 130C0 201.797 58.2029 260 130 260C168.501 260 203.094 243.262 226.898 216.667H73.1249C75.9835 213.427 78.9769 210.088 82.0519 206.658C110.627 174.786 146.25 135.054 146.25 93.8889Z" fill="#7859CF"/>
</svg>
